<?xml version="1.0" encoding="UTF-8" standalone="no"?><!DOCTYPE svg PUBLIC "-//W3C//DTD SVG 1.1//EN" "http://www.w3.org/Graphics/SVG/1.1/DTD/svg11.dtd"><svg width="100%" height="100%" viewBox="0 0 501 429" version="1.1" xmlns="http://www.w3.org/2000/svg" xmlns:xlink="http://www.w3.org/1999/xlink" xml:space="preserve" xmlns:serif="http://www.serif.com/" style="fill-rule:evenodd;clip-rule:evenodd;stroke-linejoin:round;stroke-miterlimit:2;"><path d="M463.342,0l-374,0c-29,0 -47.57,30.83 -34,56.46l37.41,70.84l-67.82,0c-13.679,0.004 -24.932,11.261 -24.932,24.94c0,4.049 0.986,8.037 2.872,11.62l120.33,227.75c4.317,8.151 12.816,13.268 22.04,13.268c9.224,0 17.723,-5.117 22.04,-13.268l32.68,-61.52l41,77.62c14.43,27.3 53.52,27.35 68,0.08l187.46,-352.76c13.25,-24.95 -4.83,-55.03 -33.08,-55.03Zm-168,150.72l-80.83,152.14c-2.875,5.42 -8.529,8.822 -14.665,8.822c-6.136,0 -11.79,-3.402 -14.665,-8.822l-80.05,-151.5c-1.268,-2.394 -1.931,-5.061 -1.931,-7.77c0,-9.088 7.463,-16.573 16.551,-16.6l161.33,0c8.859,0 16.149,7.291 16.149,16.15c0,2.643 -0.649,5.246 -1.889,7.58Z" style="fill:#fff;fill-rule:nonzero;"/><path d="M463.342,0l-374,0c-29,0 -47.57,30.83 -34,56.46l37.41,70.84l-67.82,0c-13.679,0.004 -24.932,11.261 -24.932,24.94c0,4.049 0.986,8.037 2.872,11.62l120.33,227.75c4.317,8.151 12.816,13.268 22.04,13.268c9.224,0 17.723,-5.117 22.04,-13.268l32.68,-61.52l41,77.62c14.43,27.3 53.52,27.35 68,0.08l187.46,-352.76c13.25,-24.95 -4.83,-55.03 -33.08,-55.03Zm-168,150.72l-80.83,152.14c-2.875,5.42 -8.529,8.822 -14.665,8.822c-6.136,0 -11.79,-3.402 -14.665,-8.822l-80.05,-151.5c-1.268,-2.394 -1.931,-5.061 -1.931,-7.77c0,-9.088 7.463,-16.573 16.551,-16.6l161.33,0c8.859,0 16.149,7.291 16.149,16.15c0,2.643 -0.649,5.246 -1.889,7.58Z" style="fill:#fff;fill-rule:nonzero;"/></svg>